<svg width="1440" height="426" viewBox="0 0 1440 426" fill="none" xmlns="http://www.w3.org/2000/svg">
<g clip-path="url(#clip0_19_7)">
<path d="M682.86 -614.885C841.696 -574.663 978.399 -510.322 1071.02 -438.835C1117.33 -403.09 1152.6 -365.574 1174.11 -328.412C1195.61 -291.252 1203.35 -254.476 1194.67 -220.174C1185.98 -185.871 1161.67 -157.21 1125.07 -134.766C1088.46 -112.321 1039.59 -96.1123 981.849 -86.717C866.369 -67.9266 715.52 -76.405 556.684 -116.628C397.849 -156.85 261.145 -221.19 168.527 -292.677C122.218 -328.422 86.9486 -365.938 65.4381 -403.1C43.9293 -440.26 36.1923 -477.036 44.8788 -511.338C53.5654 -545.641 77.8733 -574.302 114.476 -596.746C151.081 -619.191 199.955 -635.4 257.695 -644.795C373.175 -663.585 524.024 -655.108 682.86 -614.885Z" stroke="url(#paint0_linear_19_7)"/>
<path d="M711.49 -727.943C942.291 -669.497 1140.94 -576.003 1275.54 -472.113C1342.84 -420.168 1394.1 -365.638 1425.38 -311.611C1456.65 -257.586 1467.91 -204.092 1455.27 -154.18C1442.63 -104.267 1407.27 -62.5819 1354.05 -29.9514C1300.83 2.6807 1229.79 26.2381 1145.88 39.8919C978.06 67.199 758.855 54.8774 528.054 -3.569C297.254 -62.0154 98.6037 -155.509 -35.9939 -259.399C-103.293 -311.344 -154.56 -365.874 -185.832 -419.902C-217.103 -473.927 -228.367 -527.421 -215.728 -577.333C-203.088 -627.246 -167.722 -668.93 -114.507 -701.561C-61.2887 -734.193 9.75165 -757.75 93.663 -771.404C261.484 -798.711 480.69 -786.39 711.49 -727.943Z" stroke="url(#paint1_linear_19_7)"/>
<path d="M746.328 -865.513C1064.7 -784.892 1338.72 -655.925 1524.4 -512.608C1617.24 -440.949 1687.97 -365.717 1731.13 -291.167C1774.28 -216.619 1789.83 -142.784 1772.38 -73.8765C1754.93 -4.96943 1706.11 52.5636 1632.68 97.5892C1559.25 142.616 1461.23 175.116 1345.48 193.951C1113.97 231.622 811.585 214.623 493.217 134.001C174.849 53.3798 -99.1794 -75.5877 -284.858 -218.905C-377.698 -290.564 -448.431 -365.795 -491.582 -440.345C-534.732 -514.893 -550.287 -588.728 -532.837 -657.635C-515.388 -726.542 -466.566 -784.076 -393.136 -829.101C-319.704 -874.129 -221.69 -906.629 -105.934 -925.464C125.577 -963.135 427.96 -946.135 746.328 -865.513Z" stroke="url(#paint2_linear_19_7)"/>
</g>
<defs>
<linearGradient id="paint0_linear_19_7" x1="84.6959" y1="-531.204" x2="1080.76" y2="-117.975" gradientUnits="userSpaceOnUse">
<stop stop-color="#484848"/>
<stop offset="0.491388" stop-color="#484848" stop-opacity="0.36"/>
<stop offset="1" stop-color="#484848"/>
</linearGradient>
<linearGradient id="paint1_linear_19_7" x1="-157.657" y1="-606.141" x2="1289.55" y2="-5.74734" gradientUnits="userSpaceOnUse">
<stop stop-color="#484848"/>
<stop offset="0.491388" stop-color="#484848" stop-opacity="0.36"/>
<stop offset="1" stop-color="#484848"/>
</linearGradient>
<linearGradient id="paint2_linear_19_7" x1="-452.555" y1="-697.324" x2="1543.61" y2="130.813" gradientUnits="userSpaceOnUse">
<stop stop-color="#484848"/>
<stop offset="0.491388" stop-color="#484848" stop-opacity="0.36"/>
<stop offset="1" stop-color="#484848"/>
</linearGradient>
<clipPath id="clip0_19_7">
<rect width="1440" height="426" fill="white"/>
</clipPath>
</defs>
</svg>
