<svg width="1440" height="937" viewBox="0 0 1440 937" fill="none" xmlns="http://www.w3.org/2000/svg">
<g opacity="0.5">
<path d="M651.634 349.278C492.798 389.501 356.095 453.841 263.477 525.329C217.168 561.073 181.899 598.589 160.388 635.752C138.879 672.911 131.142 709.687 139.829 743.99C148.515 778.292 172.823 806.953 209.426 829.397C246.031 851.843 294.905 868.051 352.645 877.446C468.125 896.237 618.974 887.758 777.81 847.536C936.646 807.313 1073.35 742.974 1165.97 671.486C1212.28 635.742 1247.55 598.226 1269.06 561.063C1290.56 523.903 1298.3 487.128 1289.62 452.825C1280.93 418.523 1256.62 389.862 1220.02 367.418C1183.41 344.972 1134.54 328.764 1076.8 319.368C961.319 300.578 810.47 309.055 651.634 349.278Z" stroke="url(#paint0_linear_18_127)"/>
<path d="M623.004 236.22C392.204 294.667 193.553 388.16 58.9559 492.05C-8.34334 543.995 -59.6097 598.525 -90.8823 652.553C-122.153 706.578 -133.418 760.071 -120.778 809.983C-108.139 859.896 -72.7719 901.581 -19.5568 934.212C33.6611 966.844 104.702 990.401 188.613 1004.06C356.434 1031.36 575.639 1019.04 806.44 960.594C1037.24 902.148 1235.89 808.654 1370.49 704.765C1437.79 652.819 1489.05 598.29 1520.33 544.262C1551.6 490.237 1562.86 436.743 1550.22 386.83C1537.58 336.918 1502.22 295.233 1449 262.603C1395.78 229.971 1324.74 206.413 1240.83 192.759C1073.01 165.452 853.805 177.774 623.004 236.22Z" stroke="url(#paint1_linear_18_127)"/>
<path d="M588.167 98.6502C269.799 179.272 -4.22907 308.238 -189.908 451.555C-282.748 523.214 -353.48 598.446 -396.632 672.996C-439.781 747.544 -455.337 821.38 -437.888 890.287C-420.438 959.194 -371.615 1016.73 -298.186 1061.75C-224.753 1106.78 -126.74 1139.28 -10.9832 1158.11C220.528 1195.78 522.909 1178.79 841.277 1098.16C1159.65 1017.54 1433.67 888.576 1619.35 745.259C1712.19 673.6 1782.93 598.368 1826.08 523.818C1869.23 449.271 1884.78 375.435 1867.33 306.528C1849.88 237.621 1801.06 180.088 1727.63 135.062C1654.2 90.0347 1556.18 57.5346 1440.43 38.6992C1208.92 1.02863 906.535 18.0288 588.167 98.6502Z" stroke="url(#paint2_linear_18_127)"/>
</g>
<defs>
<linearGradient id="paint0_linear_18_127" x1="1249.8" y1="432.959" x2="253.739" y2="846.188" gradientUnits="userSpaceOnUse">
<stop stop-color="#484848"/>
<stop offset="0.491388" stop-color="#484848" stop-opacity="0.36"/>
<stop offset="1" stop-color="#484848"/>
</linearGradient>
<linearGradient id="paint1_linear_18_127" x1="1492.15" y1="358.022" x2="44.9455" y2="958.416" gradientUnits="userSpaceOnUse">
<stop stop-color="#484848"/>
<stop offset="0.491388" stop-color="#484848" stop-opacity="0.36"/>
<stop offset="1" stop-color="#484848"/>
</linearGradient>
<linearGradient id="paint2_linear_18_127" x1="1787.05" y1="266.839" x2="-209.117" y2="1094.98" gradientUnits="userSpaceOnUse">
<stop stop-color="#484848"/>
<stop offset="0.491388" stop-color="#484848" stop-opacity="0.36"/>
<stop offset="1" stop-color="#484848"/>
</linearGradient>
</defs>
</svg>
