<svg width="600" height="1045" viewBox="0 0 600 1045" fill="none" xmlns="http://www.w3.org/2000/svg">
<g opacity="0.5">
<path opacity="0.0344828" d="M436.653 395.308C331.528 483.518 244.658 573.224 189.187 646.933C161.447 683.794 141.594 716.61 131.222 743.208C126.036 756.507 123.241 768.203 122.989 778.042C122.737 787.874 125.022 795.789 129.93 801.637C134.837 807.485 142.235 811.111 151.961 812.57C161.695 814.03 173.698 813.308 187.695 810.51C215.69 804.914 251.455 791.061 292.573 770.143C374.795 728.315 478.223 658.342 583.347 570.131C688.472 481.921 775.342 392.216 830.812 318.506C858.553 281.645 878.406 248.829 888.778 222.232C893.964 208.933 896.76 197.237 897.012 187.397C897.265 177.566 894.979 169.651 890.072 163.802C885.164 157.954 877.766 154.329 868.04 152.87C858.306 151.41 846.303 152.132 832.305 154.93C804.31 160.525 768.545 174.379 727.427 195.297C645.205 237.125 541.778 307.098 436.653 395.308Z" stroke="#2B2C3B" stroke-width="2"/>
<path opacity="0.0689655" d="M429.314 406.001C332.277 503.038 253.556 599.973 204.72 678.237C180.298 717.376 163.38 751.797 155.366 779.197C151.359 792.898 149.594 804.792 150.2 814.617C150.806 824.433 153.773 832.119 159.171 837.517C164.569 842.915 172.255 845.882 182.071 846.488C191.896 847.094 203.79 845.328 217.49 841.321C244.891 833.307 279.312 816.389 318.45 791.967C396.714 743.132 493.65 664.411 590.687 567.374C687.723 470.337 766.444 373.402 815.279 295.138C839.701 256 856.619 221.579 864.633 194.178C868.64 180.478 870.406 168.583 869.8 158.759C869.195 148.943 866.228 141.257 860.83 135.858C855.431 130.46 847.745 127.493 837.929 126.888C828.105 126.282 816.21 128.047 802.509 132.054C775.109 140.068 740.688 156.986 701.549 181.408C623.286 230.243 526.35 308.964 429.314 406.001Z" stroke="#2B2C3B" stroke-width="2"/>
<path opacity="0.103448" d="M422.588 417.31C334.378 522.435 264.405 625.863 222.577 708.084C201.659 749.203 187.805 784.967 182.21 812.962C179.412 826.96 178.691 838.963 180.151 848.697C181.609 858.423 185.235 865.821 191.083 870.728C196.931 875.635 204.847 877.921 214.678 877.669C224.518 877.416 236.213 874.621 249.512 869.435C276.109 859.063 308.925 839.21 345.786 811.47C419.496 755.999 509.202 669.129 597.412 564.004C685.622 458.879 755.595 355.452 797.423 273.23C818.341 232.112 832.194 196.347 837.79 168.352C840.588 154.355 841.31 142.351 839.85 132.617C838.392 122.892 834.766 115.493 828.918 110.586C823.07 105.679 815.154 103.393 805.323 103.645C795.483 103.898 783.787 106.693 770.488 111.879C743.89 122.251 711.074 142.105 674.213 169.845C600.504 225.315 510.799 312.185 422.588 417.31Z" stroke="#2B2C3B" stroke-width="2"/>
<path opacity="0.137931" d="M416.528 429.177C337.816 541.59 277.123 650.723 242.62 736.277C225.366 779.062 214.682 815.898 211.548 844.274C209.98 858.462 210.308 870.482 212.611 880.052C214.912 889.614 219.168 896.668 225.422 901.047C231.675 905.426 239.76 907.013 249.532 905.905C259.312 904.795 270.719 900.991 283.515 894.666C309.108 882.016 340.068 859.378 374.372 828.531C442.966 766.847 524.759 672.489 603.472 560.076C682.184 447.663 742.876 338.531 777.379 252.976C794.634 210.191 805.317 173.355 808.452 144.98C810.019 130.791 809.693 118.771 807.39 109.201C805.089 99.6393 800.832 92.5852 794.579 88.2064C788.325 83.8276 780.241 82.2404 770.469 83.3485C760.688 84.4576 749.281 88.2619 736.484 94.5873C710.891 107.238 679.931 129.876 645.628 160.723C577.033 222.407 495.24 316.764 416.528 429.177Z" stroke="#2B2C3B" stroke-width="2"/>
<path opacity="0.172414" d="M411.18 441.541C342.564 560.386 291.614 674.394 264.699 762.63C251.239 806.756 243.806 844.383 243.157 872.924C242.832 887.195 244.206 899.141 247.334 908.474C250.46 917.798 255.315 924.454 261.927 928.272C268.538 932.089 276.73 932.965 286.368 931.01C296.015 929.052 307.047 924.268 319.243 916.852C343.636 902.019 372.505 876.769 403.989 843.049C466.947 775.622 540.205 674.494 608.82 555.649C677.436 436.804 728.385 322.797 755.3 234.561C768.76 190.435 776.193 152.808 776.842 124.267C777.167 109.996 775.794 98.0498 772.666 88.7171C769.541 79.3924 764.685 72.7362 758.074 68.919C751.463 65.1019 743.271 64.2253 733.632 66.1809C723.986 68.1383 712.953 72.9223 700.756 80.3389C676.364 95.1717 647.494 120.422 616.01 154.141C553.053 221.569 479.795 322.696 411.18 441.541Z" stroke="#2B2C3B" stroke-width="2"/>
<path opacity="0.206897" d="M406.583 454.34C348.587 578.714 307.767 696.728 288.644 786.974C279.082 832.105 274.957 870.237 276.797 898.726C277.718 912.971 280.128 924.751 284.057 933.776C287.984 942.793 293.4 949.001 300.319 952.227C307.238 955.453 315.476 955.613 324.907 952.824C334.346 950.034 344.919 944.307 356.422 935.855C379.429 918.953 405.989 891.283 434.414 854.948C491.255 782.29 555.421 675.162 613.417 550.789C671.413 426.415 712.232 308.402 731.355 218.156C740.918 173.025 745.043 134.893 743.202 106.404C742.281 92.1593 739.873 80.3779 735.943 71.3533C732.017 62.3365 726.6 56.1288 719.681 52.9023C712.762 49.676 704.525 49.5168 695.094 52.3049C685.655 55.0956 675.081 60.8229 663.577 69.2744C640.57 86.1766 614.011 113.847 585.585 150.182C528.745 222.84 464.579 329.967 406.583 454.34Z" stroke="#2B2C3B" stroke-width="2"/>
<path opacity="0.241379" d="M402.773 467.508C355.838 596.463 325.459 717.585 314.275 809.155C308.681 854.948 307.896 893.294 312.212 921.514C314.371 935.624 317.798 947.15 322.5 955.798C327.197 964.438 333.134 970.15 340.308 972.761C347.482 975.372 355.701 974.813 364.854 971.214C374.013 967.611 384.047 960.984 394.771 951.562C416.217 932.719 440.263 902.839 465.414 864.165C515.706 786.829 570.29 674.517 617.226 545.562C664.162 416.608 694.54 295.486 705.725 203.916C711.318 158.123 712.103 119.777 707.787 91.5573C705.628 77.4469 702.202 65.9202 697.501 57.2725C692.804 48.6322 686.866 42.9202 679.693 40.3091C672.519 37.698 664.299 38.2573 655.147 41.8569C645.987 45.4596 635.952 52.0867 625.229 61.5086C603.782 80.3518 579.736 110.232 554.586 148.906C504.294 226.241 449.709 338.553 402.773 467.508Z" stroke="#2B2C3B" stroke-width="2"/>
<path opacity="0.275862" d="M399.78 480.968C364.262 613.523 344.555 736.833 341.394 829.029C339.814 875.135 342.373 913.403 349.133 941.14C352.513 955.008 356.932 966.192 362.369 974.397C367.801 982.595 374.214 987.768 381.588 989.744C388.962 991.719 397.102 990.446 405.905 986.062C414.716 981.675 424.134 974.199 433.996 963.879C453.718 943.238 475.069 911.376 496.753 870.657C540.113 789.232 584.702 672.59 620.22 540.035C655.737 407.48 675.444 284.172 678.605 191.976C680.186 145.87 677.626 107.601 670.866 79.8649C667.486 65.9963 663.069 54.8121 657.632 46.607C652.199 38.409 645.787 33.2362 638.413 31.2603C631.039 29.2844 622.899 30.558 614.095 34.9415C605.284 39.3288 595.865 46.8053 586.004 57.126C566.281 77.7666 544.93 109.629 523.246 150.348C479.886 231.772 435.298 348.414 399.78 480.968Z" stroke="#2B2C3B" stroke-width="2"/>
<path opacity="0.310345" d="M397.626 494.656C373.796 629.802 364.911 754.36 369.798 846.481C372.241 892.549 378.126 930.449 387.278 957.491C391.854 971.012 397.23 981.768 403.362 989.468C409.488 997.161 416.327 1001.76 423.845 1003.08C431.363 1004.41 439.361 1002.43 447.749 997.294C456.144 992.156 464.875 983.887 473.799 972.747C491.648 950.466 510.14 916.864 528.193 874.41C564.292 789.516 598.544 669.432 622.374 534.286C646.204 399.14 655.088 274.583 650.202 182.462C647.758 136.394 641.873 98.494 632.722 71.4523C628.146 57.931 622.77 47.1745 616.639 39.4744C610.513 31.7811 603.674 27.1869 596.155 25.8611C588.637 24.5354 580.639 26.5136 572.251 31.6477C563.856 36.7863 555.125 45.0553 546.2 56.1962C528.352 78.4771 509.859 112.079 491.807 154.533C455.708 239.426 421.455 359.51 397.626 494.656Z" stroke="#2B2C3B" stroke-width="2"/>
<path opacity="0.344828" d="M396.326 508.495C384.366 645.204 386.371 770.062 399.268 861.406C405.717 907.086 414.883 944.329 426.357 970.47C432.094 983.541 438.387 993.787 445.167 1000.92C451.94 1008.05 459.153 1012.03 466.758 1012.7C474.364 1013.36 482.159 1010.7 490.067 1004.85C497.983 999.001 505.959 990.003 513.879 978.127C529.717 954.375 545.211 919.29 559.495 875.424C588.057 787.707 611.713 665.094 623.674 528.385C635.634 391.677 633.629 266.819 620.732 175.475C614.283 129.795 605.117 92.5526 593.643 66.4113C587.907 53.3404 581.614 43.0933 574.835 35.9569C568.061 28.8268 560.848 24.8461 553.243 24.1807C545.637 23.5153 537.843 26.183 529.934 32.0286C522.018 37.8793 514.041 46.8778 506.121 58.7542C490.283 82.5059 474.789 117.591 460.505 161.457C431.943 249.174 408.287 371.787 396.326 508.495Z" stroke="#2B2C3B" stroke-width="2"/>
<path opacity="0.37931" d="M395.892 522.411C395.892 659.642 408.772 783.85 429.581 873.722C439.987 918.666 452.364 954.969 466.072 980.01C472.926 992.532 480.089 1002.19 487.464 1008.71C494.834 1015.22 502.366 1018.56 510 1018.56C517.635 1018.56 525.168 1015.22 532.537 1008.71C539.912 1002.19 547.074 992.531 553.928 980.01C567.636 954.969 580.013 918.666 590.419 873.722C611.228 783.85 624.108 659.642 624.108 522.411C624.108 385.18 611.228 260.973 590.419 171.1C580.013 126.156 567.636 89.8539 553.928 64.8121C547.074 52.2909 539.912 42.6312 532.537 36.1129C525.168 29.6002 517.635 26.2633 510 26.2632C502.366 26.2632 494.833 29.6002 487.464 36.1129C480.089 42.6312 472.926 52.2907 466.072 64.8121C452.364 89.8539 439.987 126.156 429.581 171.1C408.772 260.973 395.892 385.18 395.892 522.411Z" stroke="#2B2C3B" stroke-width="2"/>
<path opacity="0.413793" d="M396.326 536.326C408.287 673.035 431.943 795.648 460.506 883.365C474.789 927.231 490.283 962.316 506.121 986.068C514.041 997.944 522.018 1006.94 529.934 1012.79C537.843 1018.64 545.637 1021.31 553.243 1020.64C560.848 1019.98 568.061 1015.99 574.835 1008.86C581.614 1001.73 587.907 991.482 593.644 978.411C605.117 952.27 614.283 915.027 620.732 869.347C633.629 778.003 635.634 653.145 623.674 516.436C611.713 379.727 588.057 257.115 559.495 169.398C545.211 125.532 529.717 90.4469 513.879 66.6951C505.959 54.819 497.983 45.8202 490.067 39.9695C482.159 34.1239 474.364 31.4563 466.759 32.1216C459.153 32.7869 451.94 36.7677 445.167 43.8978C438.387 51.0342 432.094 61.2812 426.357 74.3523C414.883 100.494 405.717 137.736 399.268 183.416C386.371 274.76 384.366 399.618 396.326 536.326Z" stroke="#2B2C3B" stroke-width="2"/>
<path opacity="0.448276" d="M397.626 550.165C421.456 685.311 455.708 805.396 491.807 890.29C509.86 932.744 528.352 966.345 546.201 988.626C555.125 999.767 563.856 1008.04 572.252 1013.17C580.64 1018.31 588.637 1020.29 596.156 1018.96C603.674 1017.63 610.513 1013.04 616.639 1005.35C622.77 997.647 628.147 986.891 632.722 973.37C641.874 946.329 647.759 908.429 650.202 862.36C655.089 770.24 646.204 645.682 622.375 510.536C598.545 375.39 564.292 255.306 528.193 170.413C510.141 127.958 491.648 94.3568 473.8 72.0759C464.875 60.9351 456.145 52.6658 447.75 47.5273C439.362 42.3931 431.364 40.4151 423.846 41.7406C416.327 43.0663 409.488 47.6606 403.362 55.354C397.231 63.054 391.854 73.8106 387.278 87.332C378.127 114.374 372.242 152.274 369.798 198.342C364.912 290.462 373.796 415.019 397.626 550.165Z" stroke="#2B2C3B" stroke-width="2"/>
<path opacity="0.482759" d="M399.78 563.851C435.298 696.406 479.886 813.049 523.247 894.473C544.931 935.192 566.282 967.054 586.004 987.695C595.866 998.015 605.284 1005.49 614.095 1009.88C622.899 1014.26 631.039 1015.54 638.413 1013.56C645.787 1011.58 652.2 1006.41 657.632 998.213C663.069 990.008 667.487 978.824 670.867 964.956C677.627 937.22 680.186 898.951 678.605 852.845C675.444 760.649 655.738 637.34 620.22 504.785C584.702 372.23 540.114 255.588 496.753 174.164C475.069 133.445 453.719 101.583 433.996 80.9423C424.135 70.6218 414.717 63.1449 405.906 58.7575C397.102 54.374 388.962 53.1006 381.588 55.0763C374.214 57.0522 367.802 62.2251 362.369 70.4231C356.932 78.6282 352.513 89.8125 349.133 103.681C342.374 131.418 339.814 169.686 341.395 215.792C344.556 307.988 364.262 431.297 399.78 563.851Z" stroke="#2B2C3B" stroke-width="2"/>
<path opacity="0.517241" d="M402.774 577.315C449.709 706.27 504.294 818.583 554.586 895.918C579.737 934.592 603.783 964.472 625.229 983.315C635.953 992.737 645.987 999.364 655.147 1002.97C664.299 1006.57 672.519 1007.13 679.693 1004.51C686.867 1001.9 692.804 996.191 697.501 987.551C702.202 978.903 705.629 967.377 707.787 953.267C712.104 925.047 711.318 886.701 705.725 840.908C694.541 749.338 664.162 628.216 617.226 499.261C570.291 370.306 515.706 257.995 465.414 180.659C440.264 141.985 416.217 112.105 394.771 93.2617C384.048 83.8399 374.014 77.2123 364.854 73.6096C355.702 70.0101 347.482 69.4509 340.308 72.0618C333.134 74.6729 327.197 80.3849 322.5 89.0252C317.799 97.673 314.372 109.2 312.213 123.31C307.896 151.53 308.682 189.877 314.275 235.669C325.46 327.239 355.838 448.361 402.774 577.315Z" stroke="#2B2C3B" stroke-width="2"/>
<path opacity="0.551724" d="M406.583 590.48C464.579 714.854 528.745 821.982 585.586 894.639C614.011 930.975 640.57 958.645 663.577 975.547C675.081 983.999 685.655 989.725 695.094 992.516C704.525 995.304 712.762 995.145 719.681 991.919C726.6 988.692 732.017 982.484 735.943 973.468C739.873 964.443 742.282 952.662 743.202 938.418C745.043 909.929 740.918 871.797 731.355 826.666C712.233 736.42 671.413 618.406 613.417 494.032C555.42 369.659 491.255 262.532 434.414 189.874C405.989 153.539 379.43 125.869 356.423 108.966C344.919 100.515 334.346 94.7871 324.907 91.9965C315.476 89.2083 307.238 89.3676 300.319 92.5939C293.4 95.8202 287.984 102.028 284.057 111.045C280.128 120.069 277.718 131.851 276.798 146.096C274.957 174.585 279.082 212.717 288.645 257.848C307.767 348.094 348.587 466.107 406.583 590.48Z" stroke="#2B2C3B" stroke-width="2"/>
<path opacity="0.586207" d="M411.18 603.28C479.795 722.125 553.053 823.253 616.01 890.681C647.494 924.4 676.364 949.65 700.757 964.483C712.953 971.9 723.986 976.683 733.632 978.64C743.271 980.596 751.463 979.719 758.074 975.902C764.685 972.085 769.541 965.429 772.666 956.104C775.794 946.772 777.167 934.826 776.843 920.555C776.193 892.014 768.761 854.387 755.301 810.261C728.386 722.025 677.436 608.018 608.82 489.172C540.205 370.327 466.947 269.2 403.99 201.773C372.506 168.053 343.636 142.803 319.243 127.97C307.047 120.553 296.015 115.769 286.368 113.812C276.73 111.856 268.538 112.733 261.927 116.55C255.315 120.367 250.46 127.023 247.334 136.348C244.206 145.68 242.833 157.627 243.158 171.898C243.807 200.439 251.239 238.066 264.699 282.192C291.615 370.428 342.564 484.435 411.18 603.28Z" stroke="#2B2C3B" stroke-width="2"/>
<path opacity="0.62069" d="M416.528 615.644C495.24 728.057 577.034 822.415 645.628 884.099C679.931 914.946 710.892 937.584 736.484 950.234C749.281 956.56 760.688 960.363 770.468 961.472C780.241 962.581 788.325 960.993 794.578 956.615C800.832 952.236 805.089 945.182 807.39 935.62C809.692 926.05 810.019 914.03 808.452 899.842C805.318 871.466 794.634 834.63 777.379 791.845C742.876 706.291 682.184 597.158 603.471 484.745C524.759 372.332 442.966 277.975 374.372 216.291C340.069 185.444 309.108 162.806 283.516 150.156C270.719 143.83 259.312 140.025 249.532 138.916C239.76 137.808 231.675 139.395 225.421 143.774C219.168 148.153 214.911 155.207 212.61 164.769C210.308 174.338 209.981 186.359 211.548 200.548C214.682 228.924 225.366 265.76 242.62 308.545C277.124 394.099 337.816 503.231 416.528 615.644Z" stroke="#2B2C3B" stroke-width="2"/>
<path opacity="0.655172" d="M422.588 627.512C510.798 732.637 600.504 819.507 674.214 874.978C711.075 902.718 743.891 922.572 770.488 932.943C783.788 938.129 795.483 940.924 805.323 941.176C815.154 941.429 823.069 939.143 828.918 934.236C834.766 929.329 838.391 921.93 839.85 912.205C841.31 902.471 840.588 890.468 837.79 876.47C832.195 848.476 818.341 812.711 797.423 771.593C755.595 689.371 685.622 585.943 597.412 480.818C509.201 375.693 419.496 288.824 345.787 233.353C308.926 205.613 276.11 185.759 249.512 175.388C236.213 170.202 224.517 167.406 214.678 167.153C204.846 166.901 196.931 169.187 191.083 174.094C185.235 179.001 181.609 186.399 180.15 196.125C178.69 205.859 179.412 217.863 182.21 231.861C187.806 259.855 201.659 295.62 222.577 336.738C264.405 418.96 334.378 522.387 422.588 627.512Z" stroke="#2B2C3B" stroke-width="2"/>
<path opacity="0.689655" d="M429.313 638.82C526.35 735.857 623.286 814.578 701.549 863.414C740.688 887.836 775.109 904.754 802.51 912.768C816.21 916.775 828.105 918.54 837.929 917.934C847.745 917.328 855.431 914.361 860.829 908.963C866.227 903.565 869.195 895.878 869.8 886.063C870.406 876.238 868.641 864.344 864.634 850.644C856.62 823.243 839.702 788.822 815.28 749.684C766.444 671.42 687.723 574.484 590.686 477.447C493.65 380.411 396.714 301.69 318.451 252.855C279.312 228.433 244.891 211.515 217.491 203.501C203.79 199.494 191.895 197.728 182.071 198.334C172.255 198.939 164.569 201.906 159.171 207.304C153.773 212.702 150.806 220.389 150.2 230.204C149.594 240.029 151.36 251.924 155.367 265.625C163.381 293.025 180.299 327.446 204.721 366.585C253.556 444.848 332.277 541.784 429.313 638.82Z" stroke="#2B2C3B" stroke-width="2"/>
<path opacity="0.724138" d="M436.653 649.515C541.778 737.725 645.206 807.698 727.428 849.527C768.546 870.444 804.311 884.298 832.305 889.893C846.303 892.691 858.306 893.413 868.04 891.953C877.766 890.494 885.164 886.868 890.071 881.02C894.978 875.172 897.264 867.257 897.012 857.425C896.76 847.586 893.964 835.89 888.778 822.591C878.407 795.994 858.553 763.178 830.813 726.317C775.342 652.608 688.472 562.902 583.347 474.691C478.222 386.481 374.795 316.509 292.573 274.68C251.455 253.762 215.69 239.909 187.696 234.313C173.698 231.516 161.695 230.793 151.961 232.253C142.235 233.711 134.837 237.337 129.929 243.185C125.022 249.033 122.736 256.949 122.989 266.78C123.241 276.62 126.037 288.316 131.223 301.615C141.594 328.213 161.448 361.029 189.188 397.89C244.659 471.599 331.528 561.305 436.653 649.515Z" stroke="#2B2C3B" stroke-width="2"/>
<path opacity="0.758621" d="M444.55 659.545C556.963 738.257 666.096 798.949 751.651 833.453C794.436 850.707 831.272 861.391 859.647 864.525C873.836 866.092 885.856 865.765 895.426 863.462C904.988 861.161 912.042 856.905 916.42 850.651C920.799 844.397 922.386 836.313 921.278 826.541C920.169 816.761 916.365 805.354 910.04 792.557C897.389 766.965 874.751 736.004 843.904 701.701C782.22 633.107 687.862 551.314 575.449 472.601C463.037 393.889 353.904 333.197 268.35 298.694C225.565 281.439 188.729 270.755 160.353 267.621C146.165 266.054 134.144 266.38 124.574 268.683C115.013 270.984 107.959 275.24 103.58 281.494C99.2011 287.748 97.6139 295.832 98.7221 305.604C99.8312 315.384 103.635 326.792 109.961 339.589C122.611 365.181 145.249 396.142 176.096 430.445C237.78 499.039 332.137 580.832 444.55 659.545Z" stroke="#2B2C3B" stroke-width="2"/>
<path opacity="0.793103" d="M452.946 668.862C571.791 737.478 685.799 788.428 774.035 815.343C818.161 828.803 855.788 836.235 884.329 836.885C898.6 837.209 910.546 835.835 919.878 832.707C929.203 829.582 935.859 824.727 939.676 818.115C943.493 811.504 944.37 803.312 942.414 793.674C940.457 784.027 935.673 772.995 928.257 760.799C913.424 736.406 888.174 707.536 854.454 676.052C787.027 613.095 685.899 539.837 567.054 471.222C448.209 402.606 334.202 351.657 245.966 324.741C201.84 311.281 164.213 303.849 135.672 303.2C121.401 302.875 109.455 304.248 100.122 307.376C90.7972 310.501 84.141 315.356 80.3238 321.968C76.5067 328.579 75.6301 336.771 77.5857 346.409C79.5431 356.056 84.3271 367.089 91.7437 379.286C106.576 403.678 131.827 432.548 165.546 464.032C232.974 526.989 334.101 600.247 452.946 668.862Z" stroke="#2B2C3B" stroke-width="2"/>
<path opacity="0.827586" d="M461.776 677.428C586.149 735.425 704.163 776.244 794.41 795.367C839.541 804.93 877.672 809.055 906.161 807.214C920.406 806.294 932.187 803.884 941.211 799.954C950.228 796.028 956.436 790.611 959.662 783.692C962.889 776.773 963.048 768.536 960.26 759.105C957.469 749.666 951.742 739.093 943.291 727.589C926.389 704.582 898.718 678.023 862.383 649.598C789.725 592.757 682.597 528.591 558.224 470.595C433.851 412.599 315.837 371.779 225.591 352.657C180.46 343.094 142.328 338.969 113.84 340.81C99.5947 341.73 87.8133 344.139 78.7887 348.068C69.7719 351.994 63.5642 357.411 60.3378 364.33C57.1114 371.249 56.9522 379.486 59.7404 388.917C62.531 398.357 68.2584 408.931 76.7098 420.435C93.612 443.442 121.282 470.001 157.618 498.426C230.276 555.267 337.403 619.432 461.776 677.428Z" stroke="#2B2C3B" stroke-width="2"/>
<path opacity="0.862069" d="M470.972 685.207C599.927 732.143 721.05 762.521 812.619 773.706C858.412 779.299 896.758 780.085 924.978 775.768C939.089 773.609 950.614 770.182 959.262 765.481C967.903 760.783 973.615 754.846 976.226 747.672C978.837 740.499 978.277 732.279 974.678 723.127C971.075 713.967 964.448 703.933 955.027 693.21C936.184 671.763 906.304 647.717 867.629 622.567C790.294 572.274 677.981 517.69 549.027 470.754C420.072 423.818 298.95 393.44 207.381 382.256C161.588 376.662 123.242 375.877 95.0217 380.193C80.9113 382.352 69.3846 385.778 60.7369 390.479C52.0966 395.176 46.3846 401.114 43.7734 408.288C41.1624 415.461 41.7217 423.681 45.3212 432.833C48.9239 441.993 55.5511 452.028 64.973 462.752C83.8161 484.198 113.696 508.244 152.37 533.395C229.706 583.687 342.018 638.271 470.972 685.207Z" stroke="#2B2C3B" stroke-width="2"/>
<path opacity="0.896552" d="M480.466 692.169C613.021 727.687 736.331 747.394 828.527 750.555C874.632 752.136 912.901 749.576 940.638 742.816C954.506 739.436 965.69 735.017 973.895 729.58C982.093 724.148 987.266 717.736 989.242 710.361C991.217 702.987 989.944 694.848 985.56 686.044C981.173 677.233 973.697 667.815 963.376 657.954C942.736 638.231 910.874 616.88 870.155 595.196C788.73 551.836 672.088 507.248 539.533 471.73C406.978 436.212 283.67 416.505 191.474 413.344C145.368 411.764 107.099 414.323 79.3628 421.083C65.4942 424.463 54.3101 428.881 46.1049 434.318C37.9069 439.75 32.7341 446.163 30.7582 453.537C28.7823 460.911 30.0559 469.051 34.4394 477.854C38.8267 486.665 46.3032 496.084 56.6239 505.946C77.2645 525.668 109.126 547.019 149.846 568.703C231.27 612.063 347.912 656.651 480.466 692.169Z" stroke="#2B2C3B" stroke-width="2"/>
<path opacity="0.931035" d="M490.185 698.294C625.331 722.123 749.889 731.008 842.009 726.121C888.078 723.678 925.978 717.793 953.019 708.641C966.541 704.065 977.296 698.689 984.996 692.557C992.69 686.431 997.284 679.592 998.61 672.074C999.935 664.556 997.957 656.558 992.823 648.17C987.685 639.775 979.416 631.044 968.275 622.12C945.995 604.271 912.393 585.779 869.939 567.726C785.045 531.627 664.96 497.375 529.814 473.545C394.669 449.715 270.111 440.831 177.991 445.717C131.923 448.161 94.0228 454.046 66.9811 463.197C53.4598 467.773 42.7033 473.149 35.0033 479.28C27.3099 485.406 22.7157 492.245 21.3899 499.764C20.0643 507.282 22.0424 515.28 27.1765 523.668C32.3151 532.063 40.5841 540.794 51.725 549.719C74.0059 567.567 107.607 586.06 150.062 604.112C234.955 640.211 355.039 674.464 490.185 698.294Z" stroke="#2B2C3B" stroke-width="2"/>
<path opacity="0.965517" d="M500.054 703.561C636.763 715.521 761.621 713.516 852.965 700.619C898.645 694.17 935.888 685.004 962.029 673.531C975.1 667.794 985.346 661.5 992.483 654.721C999.613 647.947 1003.59 640.734 1004.26 633.129C1004.92 625.524 1002.26 617.729 996.411 609.82C990.56 601.905 981.562 593.928 969.686 586.009C945.935 570.17 910.849 554.676 866.983 540.393C779.266 511.83 656.653 488.174 519.945 476.213C383.236 464.253 258.379 466.258 167.035 479.155C121.355 485.604 84.1121 494.77 57.9708 506.244C44.8998 511.981 34.6527 518.273 27.5164 525.053C20.3862 531.826 16.4056 539.039 15.7401 546.645C15.0747 554.25 17.7424 562.045 23.5881 569.953C29.4388 577.869 38.4373 585.846 50.3136 593.766C74.0654 609.604 109.151 625.098 153.017 639.382C240.734 667.944 363.346 691.6 500.054 703.561Z" stroke="#2B2C3B" stroke-width="2"/>
<path d="M510 707.965C647.231 707.965 771.439 695.085 861.312 674.277C906.256 663.87 942.558 651.494 967.6 637.785C980.121 630.931 989.78 623.768 996.298 616.393C1002.81 609.024 1006.15 601.491 1006.15 593.857C1006.15 586.223 1002.81 578.69 996.298 571.321C989.78 563.945 980.121 556.783 967.6 549.929C942.558 536.221 906.256 523.844 861.312 513.438C771.439 492.629 647.231 479.749 510 479.749C372.769 479.749 248.562 492.629 158.689 513.438C113.745 523.844 77.4432 536.221 52.4014 549.929C39.8801 556.783 30.2205 563.945 23.7021 571.321C17.1895 578.69 13.8526 586.223 13.8525 593.857C13.8525 601.491 17.1895 609.024 23.7021 616.393C30.2205 623.768 39.88 630.931 52.4014 637.785C77.4432 651.494 113.745 663.87 158.689 674.277C248.562 695.085 372.769 707.965 510 707.965Z" stroke="#2B2C3B" stroke-width="2"/>
</g>
</svg>
