<svg width="600" height="1483" viewBox="0 0 600 1483" fill="none" xmlns="http://www.w3.org/2000/svg">
<g opacity="0.5">
<path opacity="0.0344828" d="M-19.1787 921.741C129.971 796.59 253.231 669.308 331.947 564.71C371.31 512.404 399.501 465.816 414.234 428.033C421.601 409.141 425.584 392.499 425.944 378.474C426.304 364.457 423.045 353.118 416 344.721C408.954 336.325 398.353 331.147 384.487 329.068C370.613 326.987 353.532 328.019 333.648 331.994C293.88 339.942 243.104 359.615 184.758 389.297C68.0802 448.654 -78.6717 547.939 -227.822 673.09C-376.972 798.242 -500.231 925.524 -578.948 1030.12C-618.311 1082.43 -646.502 1129.02 -661.235 1166.8C-668.602 1185.69 -672.584 1202.33 -672.944 1216.36C-673.304 1230.37 -670.046 1241.71 -663.001 1250.11C-655.955 1258.51 -645.354 1263.68 -631.488 1265.76C-617.613 1267.85 -600.533 1266.81 -580.649 1262.84C-540.881 1254.89 -490.105 1235.22 -431.759 1205.54C-315.081 1146.18 -168.329 1046.89 -19.1787 921.741Z" stroke="#2B2C3B" stroke-width="2"/>
<path opacity="0.0689655" d="M-8.73964 906.547C128.935 768.872 240.632 631.332 309.933 520.271C344.587 464.734 368.61 415.866 379.994 376.943C385.687 357.48 388.204 340.554 387.34 326.552C386.477 312.557 382.243 301.545 374.492 293.794C366.742 286.044 355.73 281.81 341.735 280.947C327.733 280.083 310.807 282.6 291.344 288.293C252.421 299.677 203.553 323.7 148.016 358.354C36.9549 427.655 -100.585 539.352 -238.26 677.027C-375.935 814.701 -487.632 952.242 -556.932 1063.3C-591.587 1118.84 -615.61 1167.71 -626.995 1206.63C-632.687 1226.09 -635.204 1243.02 -634.34 1257.02C-633.477 1271.02 -629.243 1282.03 -621.493 1289.78C-613.742 1297.53 -602.729 1301.76 -588.735 1302.63C-574.732 1303.49 -557.807 1300.97 -538.345 1295.28C-499.421 1283.9 -450.553 1259.87 -395.015 1225.22C-283.955 1155.92 -146.414 1044.22 -8.73964 906.547Z" stroke="#2B2C3B" stroke-width="2"/>
<path opacity="0.103448" d="M0.825507 890.477C125.977 741.327 225.262 594.575 284.619 477.897C314.301 419.551 333.974 368.776 341.922 329.008C345.897 309.123 346.929 292.042 344.848 278.168C342.769 264.302 337.591 253.701 329.194 246.655C320.798 239.61 309.458 236.352 295.442 236.712C281.417 237.071 264.775 241.054 245.883 248.421C208.1 263.155 161.512 291.345 109.206 330.708C4.608 409.425 -122.674 532.684 -247.825 681.834C-372.977 830.984 -472.262 977.736 -531.619 1094.41C-561.301 1152.76 -580.974 1203.54 -588.923 1243.3C-592.897 1263.19 -593.929 1280.27 -591.848 1294.14C-589.769 1308.01 -584.591 1318.61 -576.195 1325.66C-567.798 1332.7 -556.459 1335.96 -542.442 1335.6C-528.417 1335.24 -511.776 1331.26 -492.884 1323.89C-455.1 1309.16 -408.512 1280.97 -356.206 1241.6C-251.608 1162.89 -124.326 1039.63 0.825507 890.477Z" stroke="#2B2C3B" stroke-width="2"/>
<path opacity="0.137931" d="M9.44492 873.613C121.121 714.123 207.238 559.276 256.2 437.869C280.684 377.158 295.856 324.861 300.308 284.552C302.535 264.397 302.075 247.291 298.792 233.651C295.512 220.019 289.43 209.909 280.451 203.622C271.473 197.335 259.893 195.078 245.961 196.658C232.021 198.239 215.789 203.657 197.611 212.642C161.256 230.613 117.302 262.757 68.6261 306.528C-28.7135 394.062 -144.768 527.946 -256.444 687.436C-368.12 846.926 -454.237 1001.77 -503.199 1123.18C-527.684 1183.89 -542.856 1236.19 -547.308 1276.5C-549.535 1296.65 -549.074 1313.76 -545.792 1327.4C-542.511 1341.03 -536.43 1351.14 -527.451 1357.43C-518.473 1363.71 -506.892 1365.97 -492.96 1364.39C-479.02 1362.81 -462.789 1357.39 -444.611 1348.41C-408.256 1330.44 -364.301 1298.29 -315.626 1254.52C-218.286 1166.99 -102.231 1033.1 9.44492 873.613Z" stroke="#2B2C3B" stroke-width="2"/>
<path opacity="0.172414" d="M17.0522 856.042C114.403 687.426 186.696 525.662 224.891 400.45C243.99 337.836 254.546 284.416 255.469 243.872C255.93 223.599 253.981 206.599 249.522 193.296C245.066 180.002 238.126 170.461 228.634 164.98C219.141 159.5 207.409 158.261 193.668 161.049C179.919 163.839 164.221 170.651 146.895 181.187C112.244 202.257 71.2591 238.109 26.5836 285.957C-62.7566 381.641 -166.701 525.13 -264.052 693.746C-361.402 862.363 -433.696 1024.13 -471.89 1149.34C-490.99 1211.95 -501.546 1265.37 -502.469 1305.92C-502.93 1326.19 -500.98 1343.19 -496.522 1356.49C-492.066 1369.79 -485.126 1379.33 -475.634 1384.81C-466.141 1390.29 -454.408 1391.53 -440.667 1388.74C-426.918 1385.95 -411.221 1379.14 -393.895 1368.6C-359.244 1347.53 -318.259 1311.68 -273.583 1263.83C-184.243 1168.15 -80.2984 1024.66 17.0522 856.042Z" stroke="#2B2C3B" stroke-width="2"/>
<path opacity="0.206897" d="M23.5898 837.852C105.874 661.393 163.794 493.945 190.93 365.879C204.5 301.839 210.36 247.702 207.745 207.232C206.437 186.996 203.014 170.23 197.413 157.368C191.815 144.512 184.07 135.612 174.136 130.98C164.202 126.348 152.406 126.136 138.961 130.111C125.507 134.088 110.463 142.243 94.121 154.248C61.4384 178.259 23.734 217.547 -16.6014 269.106C-97.2622 372.212 -188.305 524.215 -270.589 700.674C-352.874 877.134 -410.793 1044.58 -437.929 1172.65C-451.499 1236.69 -457.36 1290.83 -454.745 1331.3C-453.437 1351.53 -450.014 1368.3 -444.413 1381.16C-438.815 1394.01 -431.07 1402.91 -421.137 1407.55C-411.203 1412.18 -399.406 1412.39 -385.96 1408.42C-372.507 1404.44 -357.463 1396.28 -341.121 1384.28C-308.438 1360.27 -270.734 1320.98 -230.398 1269.42C-149.737 1166.31 -58.6946 1014.31 23.5898 837.852Z" stroke="#2B2C3B" stroke-width="2"/>
<path opacity="0.241379" d="M29.0081 819.139C95.5999 636.179 138.705 464.32 154.576 334.377C162.513 269.398 163.632 214.956 157.5 174.868C154.434 154.823 149.563 138.419 142.862 126.094C136.165 113.775 127.673 105.584 117.374 101.835C107.074 98.0864 95.3042 98.9032 82.2562 104.035C69.2002 109.17 54.9242 118.605 39.6909 131.989C9.22533 158.756 -24.9115 201.181 -60.5996 256.059C-131.967 365.803 -209.416 525.162 -276.008 708.122C-342.599 891.081 -385.704 1062.94 -401.576 1192.88C-409.512 1257.86 -410.632 1312.31 -404.5 1352.39C-401.434 1372.44 -396.562 1388.84 -389.861 1401.17C-383.165 1413.49 -374.674 1421.68 -364.374 1425.43C-354.074 1429.17 -342.304 1428.36 -329.256 1423.23C-316.2 1418.09 -301.924 1408.66 -286.691 1395.27C-256.225 1368.5 -222.088 1326.08 -186.4 1271.2C-115.032 1161.46 -37.5837 1002.1 29.0081 819.139Z" stroke="#2B2C3B" stroke-width="2"/>
<path opacity="0.275862" d="M33.2655 800.008C83.658 611.941 111.621 436.979 116.106 306.147C118.349 240.723 114.72 186.391 105.117 146.99C100.315 127.289 94.0327 111.372 86.2831 99.6772C78.5383 87.9893 69.3651 80.5693 58.7776 77.7324C48.1903 74.8956 36.5367 76.7352 23.9856 82.9846C11.4269 89.2379 -1.97255 99.881 -15.9813 114.542C-43.998 143.863 -74.3074 189.101 -105.077 246.881C-166.608 362.428 -229.873 527.93 -280.265 715.998C-330.658 904.065 -358.62 1079.03 -363.106 1209.86C-365.349 1275.28 -361.72 1329.62 -352.117 1369.02C-347.315 1388.72 -341.032 1404.63 -333.283 1416.33C-325.538 1428.02 -316.365 1435.44 -305.778 1438.27C-295.191 1441.11 -283.536 1439.27 -270.985 1433.02C-258.427 1426.77 -245.027 1416.13 -231.019 1401.46C-203.002 1372.14 -172.692 1326.9 -141.923 1269.12C-80.3916 1153.58 -17.1269 988.075 33.2655 800.008Z" stroke="#2B2C3B" stroke-width="2"/>
<path opacity="0.310345" d="M36.3298 780.555C70.1394 588.811 82.7466 412.078 75.8124 281.353C72.3448 215.983 63.9937 162.174 50.9935 123.759C44.4932 104.552 36.8471 89.243 28.1078 78.2681C19.3738 67.2997 9.58876 60.7074 -1.20565 58.804C-11.9999 56.9008 -23.4489 59.749 -35.4075 67.0686C-47.3734 74.3927 -59.7943 86.1631 -72.4719 101.989C-97.8265 133.64 -124.078 181.348 -149.694 241.59C-200.921 362.06 -249.52 532.446 -283.33 724.19C-317.139 915.933 -329.746 1092.67 -322.812 1223.39C-319.345 1288.76 -310.994 1342.57 -297.994 1380.99C-291.493 1400.19 -283.847 1415.5 -275.108 1426.48C-266.374 1437.44 -256.589 1444.04 -245.795 1445.94C-235.001 1447.84 -223.551 1445 -211.592 1437.68C-199.627 1430.35 -187.206 1418.58 -174.528 1402.76C-149.173 1371.11 -122.922 1323.4 -97.3057 1263.15C-46.0792 1142.68 2.52028 972.298 36.3298 780.555Z" stroke="#2B2C3B" stroke-width="2"/>
<path opacity="0.344828" d="M38.1776 760.886C55.147 566.926 52.3029 389.766 34.0016 260.143C24.8499 195.324 11.8408 142.448 -4.45795 105.312C-12.6076 86.7445 -21.5588 72.1604 -31.2214 61.9889C-40.8782 51.8234 -51.2005 46.109 -62.1197 45.1537C-73.0388 44.1986 -84.1959 48.0338 -95.4711 56.3678C-106.753 64.7069 -118.101 77.515 -129.351 94.3858C-151.851 128.126 -173.844 177.94 -194.112 240.186C-234.644 364.662 -268.209 538.636 -285.178 732.596C-302.147 926.557 -299.303 1103.72 -281.002 1233.34C-271.85 1298.16 -258.841 1351.04 -242.543 1388.17C-234.393 1406.74 -225.442 1421.32 -215.779 1431.49C-206.122 1441.66 -195.801 1447.37 -184.882 1448.33C-173.962 1449.28 -162.805 1445.45 -151.529 1437.12C-140.247 1428.78 -128.9 1415.97 -117.65 1399.1C-95.1499 1365.36 -73.1566 1315.54 -52.8881 1253.3C-12.3561 1128.82 21.2083 954.847 38.1776 760.886Z" stroke="#2B2C3B" stroke-width="2"/>
<path opacity="0.37931" d="M38.7952 741.109C38.7952 546.407 20.5214 370.17 -9.00757 242.635C-23.7739 178.86 -41.342 127.319 -60.8152 91.7456C-70.5521 73.9585 -80.7404 60.2101 -91.2527 50.9194C-101.759 41.6343 -112.54 36.8413 -123.501 36.8413C-134.461 36.8414 -145.242 41.6345 -155.748 50.9194C-166.26 60.2101 -176.448 73.9585 -186.185 91.7456C-205.659 127.319 -223.227 178.86 -237.993 242.635C-267.522 370.17 -285.796 546.407 -285.796 741.109C-285.796 935.81 -267.522 1112.05 -237.993 1239.58C-223.227 1303.36 -205.659 1354.9 -186.185 1390.47C-176.448 1408.26 -166.26 1422.01 -155.748 1431.3C-145.242 1440.58 -134.462 1445.38 -123.501 1445.38C-112.54 1445.38 -101.759 1440.58 -91.2527 1431.3C-80.7404 1422.01 -70.552 1408.26 -60.8152 1390.47C-41.3419 1354.9 -23.7739 1303.36 -9.00757 1239.58C20.5214 1112.05 38.7952 935.81 38.7952 741.109Z" stroke="#2B2C3B" stroke-width="2"/>
<path opacity="0.413793" d="M38.1774 721.331C21.208 527.371 -12.3563 353.396 -52.8883 228.921C-73.1567 166.675 -95.1501 116.861 -117.65 83.1205C-128.9 66.2498 -140.247 53.4416 -151.53 45.1025C-162.805 36.7684 -173.963 32.9333 -184.882 33.8886C-195.801 34.844 -206.123 40.5584 -215.779 50.7236C-225.442 60.8952 -234.393 75.4792 -242.543 94.0473C-258.841 131.182 -271.851 184.059 -281.002 248.878C-299.304 378.501 -302.148 555.661 -285.178 749.621C-268.209 943.582 -234.645 1117.56 -194.113 1242.03C-173.844 1304.28 -151.851 1354.09 -129.351 1387.83C-118.101 1404.7 -106.753 1417.51 -95.4713 1425.85C-84.1961 1434.18 -73.039 1438.02 -62.1199 1437.06C-51.2007 1436.11 -40.8784 1430.39 -31.2216 1420.23C-21.5591 1410.06 -12.6076 1395.47 -4.45807 1376.91C11.8407 1339.77 24.8496 1286.89 34.0014 1222.07C52.3026 1092.45 55.1468 915.292 38.1774 721.331Z" stroke="#2B2C3B" stroke-width="2"/>
<path opacity="0.448276" d="M36.3292 701.663C2.51966 509.919 -46.0798 339.532 -97.3063 219.063C-122.923 158.821 -149.174 111.113 -174.529 79.4618C-187.206 63.6357 -199.627 51.8653 -211.593 44.5413C-223.552 37.2216 -235.001 34.3735 -245.796 36.2768C-256.59 38.1803 -266.374 44.7725 -275.108 55.7407C-283.848 66.7157 -291.494 82.0244 -297.994 101.232C-310.994 139.646 -319.345 193.455 -322.813 258.826C-329.747 389.55 -317.14 566.284 -283.33 758.027C-249.521 949.771 -200.921 1120.16 -149.695 1240.63C-124.078 1300.87 -97.8271 1348.58 -72.4724 1380.23C-59.7948 1396.05 -47.3739 1407.82 -35.4081 1415.15C-23.4495 1422.47 -12.0005 1425.32 -1.20625 1423.41C9.58816 1421.51 19.3732 1414.92 28.1072 1403.95C36.8465 1392.97 44.4929 1377.67 50.9931 1358.46C63.9933 1320.04 72.3442 1266.23 75.8118 1200.86C82.7459 1070.14 70.1388 893.406 36.3292 701.663Z" stroke="#2B2C3B" stroke-width="2"/>
<path opacity="0.482759" d="M33.265 682.212C-17.1275 494.144 -80.3922 328.642 -141.923 213.095C-172.693 155.315 -203.002 110.077 -231.019 80.7558C-245.028 66.095 -258.427 55.4519 -270.986 49.1986C-283.537 42.949 -295.191 41.1097 -305.779 43.9466C-316.366 46.7836 -325.539 54.2034 -333.283 65.8912C-341.033 77.5861 -347.316 93.5029 -352.117 113.204C-361.72 152.605 -365.349 206.937 -363.106 272.361C-358.621 403.193 -330.658 578.155 -280.266 766.222C-229.873 954.289 -166.609 1119.79 -105.077 1235.34C-74.3079 1293.12 -43.9985 1338.36 -15.9816 1367.68C-1.97298 1382.34 11.4264 1392.98 23.9851 1399.23C36.5361 1405.48 48.1897 1407.32 58.777 1404.49C69.3645 1401.65 78.5377 1394.23 86.2826 1382.54C94.032 1370.85 100.315 1354.93 105.117 1335.23C114.719 1295.83 118.349 1241.5 116.106 1176.07C111.62 1045.24 83.6574 870.279 33.265 682.212Z" stroke="#2B2C3B" stroke-width="2"/>
<path opacity="0.517241" d="M29.0073 663.077C-37.5845 480.117 -115.033 320.758 -186.401 211.014C-222.089 156.135 -256.226 113.711 -286.691 86.9434C-301.924 73.5592 -316.2 64.1245 -329.256 58.9896C-342.305 53.8577 -354.075 53.0411 -364.375 56.7899C-374.674 60.5389 -383.165 68.73 -389.862 81.0482C-396.563 93.374 -401.434 109.778 -404.501 129.822C-410.633 169.911 -409.513 224.352 -401.576 289.332C-385.705 419.275 -342.6 591.134 -276.008 774.093C-209.417 957.053 -131.968 1116.41 -60.6004 1226.16C-24.9121 1281.03 9.22478 1323.46 39.6905 1350.23C54.9236 1363.61 69.1995 1373.05 82.2554 1378.18C95.3034 1383.31 107.073 1384.13 117.373 1380.38C127.673 1376.63 136.164 1368.44 142.861 1356.12C149.562 1343.8 154.434 1327.39 157.5 1307.35C163.632 1267.26 162.512 1212.82 154.575 1147.84C138.704 1017.9 95.5991 846.036 29.0073 663.077Z" stroke="#2B2C3B" stroke-width="2"/>
<path opacity="0.551724" d="M23.5894 644.366C-58.695 467.907 -149.738 315.904 -230.399 212.798C-270.734 161.239 -308.438 121.951 -341.121 97.9403C-357.463 85.9347 -372.507 77.7802 -385.961 73.8027C-399.406 69.8275 -411.203 70.0399 -421.137 74.6722C-431.071 79.3045 -438.816 88.2045 -444.413 101.059C-450.014 113.922 -453.437 130.688 -454.745 150.924C-457.36 191.394 -451.5 245.531 -437.93 309.571C-410.794 437.636 -352.874 605.085 -270.59 781.544C-188.305 958.004 -97.2626 1110.01 -16.6017 1213.11C23.7338 1264.67 61.4383 1303.96 94.1211 1327.97C110.463 1339.98 125.507 1348.13 138.96 1352.11C152.406 1356.08 164.202 1355.87 174.136 1351.24C184.07 1346.61 191.815 1337.71 197.413 1324.85C203.014 1311.99 206.437 1295.22 207.745 1274.99C210.36 1234.52 204.499 1180.38 190.929 1116.34C163.793 988.274 105.874 820.826 23.5894 644.366Z" stroke="#2B2C3B" stroke-width="2"/>
<path opacity="0.586207" d="M17.0517 626.176C-80.299 457.56 -184.243 314.07 -273.583 218.386C-318.259 170.539 -359.244 134.687 -393.895 113.616C-411.221 103.08 -426.918 96.2681 -440.668 93.4783C-454.409 90.6902 -466.142 91.9298 -475.634 97.4103C-485.127 102.891 -492.066 112.432 -496.522 125.726C-500.981 139.028 -502.93 156.029 -502.469 176.301C-501.546 216.845 -490.99 270.265 -471.891 332.879C-433.696 458.092 -361.403 619.855 -264.052 788.471C-166.702 957.088 -62.7572 1100.58 26.583 1196.26C71.2587 1244.11 112.244 1279.96 146.895 1301.03C164.221 1311.57 179.918 1318.38 193.667 1321.17C207.408 1323.96 219.141 1322.72 228.633 1317.24C238.126 1311.76 245.066 1302.22 249.522 1288.92C253.98 1275.62 255.93 1258.62 255.469 1238.35C254.547 1197.8 243.99 1144.38 224.89 1081.77C186.696 956.555 114.402 794.792 17.0517 626.176Z" stroke="#2B2C3B" stroke-width="2"/>
<path opacity="0.62069" d="M9.44479 608.605C-102.231 449.115 -218.286 315.231 -315.626 227.698C-364.301 183.926 -408.255 151.782 -444.611 133.812C-462.789 124.827 -479.02 119.408 -492.961 117.827C-506.892 116.247 -518.473 118.505 -527.452 124.792C-536.43 131.079 -542.512 141.189 -545.792 154.82C-549.074 168.46 -549.534 185.566 -547.308 205.721C-542.855 246.031 -527.684 298.327 -503.199 359.039C-454.237 480.446 -368.121 635.293 -256.444 794.783C-144.768 954.273 -28.7136 1088.16 68.626 1175.69C117.302 1219.46 161.256 1251.61 197.612 1269.58C215.79 1278.56 232.021 1283.98 245.961 1285.56C259.893 1287.14 271.472 1284.88 280.451 1278.6C289.43 1272.31 295.512 1262.2 298.792 1248.57C302.074 1234.93 302.535 1217.82 300.309 1197.67C295.856 1157.36 280.684 1105.06 256.2 1044.35C207.238 922.942 121.121 768.095 9.44479 608.605Z" stroke="#2B2C3B" stroke-width="2"/>
<path opacity="0.655172" d="M0.825388 591.74C-124.326 442.59 -251.608 319.33 -356.206 240.614C-408.512 201.251 -455.1 173.06 -492.883 158.327C-511.775 150.96 -528.417 146.977 -542.442 146.617C-556.459 146.257 -567.798 149.516 -576.195 156.561C-584.591 163.607 -589.769 174.208 -591.848 188.074C-593.929 201.948 -592.897 219.029 -588.922 238.913C-580.974 278.681 -561.301 329.457 -531.619 387.803C-472.262 504.481 -372.977 651.233 -247.826 800.383C-122.674 949.533 4.60788 1072.79 109.206 1151.51C161.512 1190.87 208.1 1219.06 245.884 1233.8C264.776 1241.16 281.417 1245.15 295.442 1245.51C309.458 1245.87 320.797 1242.61 329.194 1235.56C337.591 1228.52 342.768 1217.91 344.848 1204.05C346.929 1190.17 345.897 1173.09 341.923 1153.21C333.974 1113.44 314.301 1062.67 284.619 1004.32C225.262 887.642 125.977 740.89 0.825388 591.74Z" stroke="#2B2C3B" stroke-width="2"/>
<path opacity="0.689655" d="M-8.74 575.671C-146.415 437.996 -283.955 326.299 -395.016 256.998C-450.553 222.344 -499.421 198.321 -538.344 186.937C-557.807 181.244 -574.733 178.727 -588.735 179.591C-602.73 180.454 -613.742 184.688 -621.493 192.439C-629.243 200.189 -633.477 211.201 -634.34 225.196C-635.204 239.198 -632.687 256.124 -626.994 275.587C-615.61 314.51 -591.587 363.378 -556.933 418.915C-487.632 529.976 -375.935 667.516 -238.26 805.191C-100.586 942.866 36.9546 1054.56 148.015 1123.86C203.553 1158.52 252.421 1182.54 291.345 1193.93C310.807 1199.62 327.732 1202.13 341.735 1201.27C355.729 1200.41 366.741 1196.17 374.492 1188.42C382.242 1180.67 386.477 1169.66 387.34 1155.67C388.204 1141.66 385.687 1124.74 379.995 1105.28C368.61 1066.35 344.587 1017.48 309.932 961.946C240.632 850.886 128.935 713.345 -8.74 575.671Z" stroke="#2B2C3B" stroke-width="2"/>
<path opacity="0.724138" d="M-19.1791 560.475C-168.329 435.323 -315.081 336.038 -431.759 276.681C-490.105 246.999 -540.881 227.327 -580.649 219.378C-600.533 215.404 -617.614 214.371 -631.488 216.452C-645.354 218.532 -655.956 223.709 -663.001 232.106C-670.047 240.503 -673.304 251.842 -672.945 265.858C-672.585 279.883 -668.602 296.525 -661.235 315.417C-646.501 353.2 -618.311 399.788 -578.948 452.094C-500.232 556.692 -376.972 683.974 -227.822 809.126C-78.6722 934.277 68.0798 1033.56 184.758 1092.92C243.104 1122.6 293.88 1142.27 333.648 1150.22C353.532 1154.2 370.613 1155.23 384.487 1153.15C398.353 1151.07 408.954 1145.89 415.999 1137.5C423.045 1129.1 426.303 1117.76 425.944 1103.74C425.584 1089.72 421.601 1073.08 414.234 1054.18C399.501 1016.4 371.31 969.812 331.947 917.506C253.23 812.908 129.971 685.626 -19.1791 560.475Z" stroke="#2B2C3B" stroke-width="2"/>
<path opacity="0.758621" d="M-30.4115 546.224C-189.902 434.548 -344.748 348.431 -466.156 299.469C-526.867 274.985 -579.164 259.813 -619.473 255.361C-639.628 253.134 -656.734 253.594 -670.374 256.877C-684.006 260.157 -694.116 266.239 -700.403 275.218C-706.69 284.196 -708.947 295.776 -707.367 309.708C-705.786 323.648 -700.368 339.879 -691.382 358.058C-673.412 394.413 -641.268 438.367 -597.496 487.043C-509.963 584.382 -376.079 700.437 -216.589 812.113C-57.0992 923.789 97.7476 1009.91 219.155 1058.87C279.866 1083.35 332.164 1098.52 372.473 1102.98C392.628 1105.2 409.733 1104.74 423.373 1101.46C437.005 1098.18 447.115 1092.1 453.402 1083.12C459.689 1074.14 461.946 1062.56 460.366 1048.63C458.785 1034.69 453.368 1018.46 444.382 1000.28C426.412 963.924 394.268 919.97 350.496 871.294C262.962 773.955 129.078 657.9 -30.4115 546.224Z" stroke="#2B2C3B" stroke-width="2"/>
<path opacity="0.793103" d="M-42.3526 532.986C-210.969 435.635 -372.732 363.342 -497.945 325.148C-560.559 306.048 -613.979 295.492 -654.523 294.57C-674.795 294.108 -691.796 296.058 -705.098 300.516C-718.392 304.972 -727.934 311.912 -733.414 321.405C-738.894 330.897 -740.134 342.63 -737.346 356.371C-734.556 370.12 -727.744 385.817 -717.208 403.143C-696.137 437.794 -660.285 478.779 -612.437 523.455C-516.754 612.795 -373.264 716.739 -204.648 814.09C-36.0317 911.441 125.731 983.734 250.944 1021.93C313.558 1041.03 366.979 1051.58 407.523 1052.51C427.795 1052.97 444.795 1051.02 458.097 1046.56C471.391 1042.1 480.933 1035.16 486.413 1025.67C491.893 1016.18 493.133 1004.45 490.345 990.706C487.555 976.956 480.744 961.259 470.208 943.933C449.137 909.282 413.285 868.297 365.437 823.621C269.753 734.281 126.264 630.337 -42.3526 532.986Z" stroke="#2B2C3B" stroke-width="2"/>
<path opacity="0.827586" d="M-54.9116 520.817C-231.371 438.533 -398.819 380.613 -526.884 353.477C-590.925 339.907 -645.062 334.047 -685.532 336.662C-705.767 337.969 -722.533 341.393 -735.396 346.994C-748.251 352.591 -757.152 360.337 -761.784 370.271C-766.416 380.205 -766.628 392.001 -762.653 405.446C-758.676 418.9 -750.521 433.944 -738.515 450.286C-714.505 482.968 -675.217 520.673 -623.658 561.008C-520.552 641.669 -368.549 732.712 -192.09 814.996C-15.6302 897.281 151.818 955.2 279.883 982.336C343.924 995.906 398.061 1001.77 438.531 999.152C458.767 997.844 475.532 994.42 488.395 988.82C501.25 983.222 510.15 975.477 514.782 965.543C519.415 955.609 519.627 943.813 515.652 930.367C511.674 916.913 503.521 901.87 491.515 885.528C467.505 852.845 428.216 815.141 376.657 774.805C273.55 694.144 121.548 603.101 -54.9116 520.817Z" stroke="#2B2C3B" stroke-width="2"/>
<path opacity="0.862069" d="M-67.9914 509.768C-250.951 443.177 -422.81 400.072 -552.753 384.2C-617.732 376.264 -672.174 375.144 -712.262 381.276C-732.307 384.342 -748.711 389.214 -761.036 395.915C-773.355 402.611 -781.546 411.103 -785.295 421.403C-789.044 431.703 -788.227 443.472 -783.095 456.52C-777.96 469.576 -768.525 483.852 -755.141 499.086C-728.374 529.551 -685.949 563.688 -631.071 599.376C-521.327 670.744 -361.968 748.192 -179.008 814.784C3.95141 881.376 175.811 924.481 305.753 940.352C370.733 948.289 425.175 949.409 465.264 943.277C485.308 940.21 501.711 935.338 514.037 928.638C526.355 921.941 534.546 913.45 538.295 903.15C542.044 892.85 541.227 881.08 536.096 868.032C530.961 854.976 521.527 840.7 508.143 825.467C481.375 795.001 438.95 760.865 384.071 725.176C274.327 653.809 114.968 576.36 -67.9914 509.768Z" stroke="#2B2C3B" stroke-width="2"/>
<path opacity="0.896552" d="M-81.495 499.88C-269.562 449.488 -444.524 421.525 -575.356 417.04C-640.78 414.797 -695.112 418.426 -734.513 428.029C-754.214 432.831 -770.131 439.113 -781.826 446.863C-793.514 454.608 -800.934 463.781 -803.771 474.368C-806.607 484.956 -804.768 496.609 -798.518 509.16C-792.265 521.719 -781.622 535.118 -766.961 549.127C-737.64 577.144 -692.402 607.453 -634.622 638.223C-519.075 699.754 -353.572 763.019 -165.505 813.411C22.5618 863.803 197.524 891.766 328.356 896.252C393.78 898.495 448.112 894.865 487.513 885.263C507.214 880.461 523.131 874.178 534.825 866.429C546.513 858.684 553.933 849.511 556.77 838.924C559.607 828.337 557.768 816.682 551.518 804.131C545.265 791.573 534.622 778.173 519.962 764.164C490.641 736.148 445.402 705.838 387.621 675.069C272.075 613.538 106.572 550.273 -81.495 499.88Z" stroke="#2B2C3B" stroke-width="2"/>
<path opacity="0.931035" d="M-95.3178 491.185C-287.061 457.375 -463.795 444.768 -594.519 451.702C-659.89 455.17 -713.699 463.521 -752.113 476.521C-771.321 483.021 -786.629 490.667 -797.604 499.407C-808.573 508.141 -815.165 517.926 -817.068 528.72C-818.972 539.514 -816.123 550.963 -808.804 562.922C-801.48 574.888 -789.709 587.309 -773.883 599.986C-742.232 625.341 -694.524 651.592 -634.282 677.209C-513.813 728.435 -343.426 777.035 -151.682 810.844C40.061 844.654 216.794 857.261 347.519 850.327C412.89 846.859 466.699 838.508 505.114 825.508C524.321 819.008 539.629 811.361 550.604 802.622C561.572 793.888 568.165 784.104 570.068 773.31C571.971 762.515 569.123 751.066 561.804 739.107C554.479 727.141 542.71 714.72 526.884 702.043C495.233 676.688 447.524 650.437 387.282 624.82C266.813 573.594 96.4256 524.994 -95.3178 491.185Z" stroke="#2B2C3B" stroke-width="2"/>
<path opacity="0.965517" d="M-109.355 483.708C-303.315 466.738 -480.475 469.582 -610.098 487.884C-674.917 497.035 -727.794 510.044 -764.929 526.343C-783.497 534.493 -798.081 543.444 -808.252 553.107C-818.418 562.763 -824.132 573.086 -825.087 584.005C-826.043 594.924 -822.207 606.081 -813.873 617.356C-805.534 628.638 -792.726 639.986 -775.855 651.236C-742.115 673.736 -692.301 695.729 -630.055 715.998C-505.579 756.53 -331.605 790.094 -137.645 807.063C56.3158 824.033 233.475 821.188 363.098 802.887C427.918 793.735 480.795 780.727 517.93 764.428C536.498 756.278 551.081 747.327 561.253 737.664C571.418 728.007 577.132 717.686 578.088 706.767C579.043 695.848 575.208 684.69 566.874 673.414C558.535 662.133 545.728 650.785 528.857 639.535C495.116 617.035 445.302 595.042 383.056 574.773C258.58 534.241 84.6058 500.677 -109.355 483.708Z" stroke="#2B2C3B" stroke-width="2"/>
</g>
</svg>
